Coordinates
version=1
nRows=7
nColumns=40
inDegrees=yes

Units are S.I. units (second, meters, Newtons, ...)
If the header above contains a line with 'inDegrees', this indicates whether rotational values are in degrees (yes) or radians (no).

endheader
time	pelvis_tilt	pelvis_list	pelvis_rotation	pelvis_tx	pelvis_ty	pelvis_tz	hip_flexion_r	hip_adduction_r	hip_rotation_r	knee_angle_r	knee_angle_r_beta	ankle_angle_r	subtalar_angle_r	mtp_angle_r	hip_flexion_l	hip_adduction_l	hip_rotation_l	knee_angle_l	knee_angle_l_beta	ankle_angle_l	subtalar_angle_l	mtp_angle_l	lumbar_extension	lumbar_bending	lumbar_rotation	arm_flex_r	arm_add_r	arm_rot_r	elbow_flex_r	pro_sup_r	wrist_flex_r	wrist_dev_r	arm_flex_l	arm_add_l	arm_rot_l	elbow_flex_l	pro_sup_l	wrist_flex_l	wrist_dev_l
      0.00000000	      0.81849859	     -3.93099730	     89.49101799	      0.36550161	      0.86384966	      1.07895685	     -3.01181433	      4.68443302	     -8.57179493	     12.58804134	      0.21970277	      6.44203480	      0.00000000	      0.00000000	     28.91284080	     -5.40388133	    -10.37866854	      9.68754933	      0.16907963	     -2.91638305	      0.00000000	      0.00000000	     -5.04557522	      0.74738269	      6.21284946	     -3.90468667	     -7.52808729	      7.62392019	     39.55388273	     89.13440053	    -25.40342873	      3.31014574	     -9.73272879	     -6.57375728	      5.39489739	     37.30411250	     89.21528248	    -24.34315944	     -2.52682391
      0.01000000	      0.92782493	     -4.08837734	     89.40502331	      0.36428252	      0.86292626	      1.07454161	     -3.14483178	      4.69575637	     -8.54109650	     12.63638594	      0.22054654	      6.47002030	      0.00000000	      0.00000000	     28.69920476	     -5.36905294	    -10.34695637	      9.70261905	      0.16934265	     -2.91616773	      0.00000000	      0.00000000	     -4.87318142	      0.79964614	      6.19136381	     -3.94049597	     -7.47936755	      7.64205753	     39.55811818	     89.12167510	    -25.39597441	      3.30351430	     -9.65556782	     -6.62789210	      5.37992326	     37.39287052	     89.18291707	    -24.34664812	     -2.54084224
      0.02000000	      1.13981168	     -4.27330930	     89.40903012	      0.36293254	      0.86184641	      1.06990423	     -3.31414809	      4.82724477	     -8.70683642	     12.59667921	      0.21985353	      6.70297765	      0.00000000	      0.00000000	     28.42900575	     -5.37765024	     -9.86682353	      9.53720054	      0.16645555	     -2.89588522	      0.00000000	      0.00000000	     -4.66212732	      0.97760643	      5.94405576	     -3.94305726	     -7.41730395	      7.65082551	     39.59772632	     89.13262463	    -25.36838968	      3.24844628	     -9.76510034	     -6.70642139	      5.33369025	     37.69150688	     89.21601909	    -24.35783179	     -2.57950463
      0.03000000	      1.24505335	     -4.44180869	     89.31180399	      0.36162423	      0.86088523	      1.06529022	     -3.44615766	      4.82344762	     -8.67712611	     12.65468886	      0.22086599	      6.71298140	      0.00000000	      0.00000000	     28.19110967	     -5.35820343	     -9.81635965	      9.56165903	      0.16688243	     -2.93522493	      0.00000000	      0.00000000	     -4.48675418	      1.01935806	      5.91269013	     -3.98727289	     -7.36498264	      7.67354954	     39.58920815	     89.11747442	    -25.36065100	      3.24333869	     -9.68823106	     -6.75147581	      5.29293972	     37.76134630	     89.16858268	    -24.36419733	     -2.58906178
      0.04000000	      1.45781380	     -4.64185192	     89.30460314	      0.36017724	      0.85985830	      1.06052128	     -3.58575687	      4.93785236	     -8.83309286	     12.65224534	      0.22082334	      6.89145826	      0.00000000	      0.00000000	     27.85389840	     -5.38093215	     -9.30336290	      9.23572963	      0.16119389	     -3.24397114	      0.00000000	      0.00000000	     -4.27509503	      1.18435697	      5.61235272	     -3.93827269	     -7.28981204	      7.71160795	     39.53632367	     89.13080189	    -25.32358915	      3.17911723	     -9.82622924	     -6.79369408	      5.09731673	     38.04323162	     89.21639973	    -24.39136266	     -2.61577751
      0.05000000	      1.56127419	     -4.81108339	     89.22361072	      0.35872722	      0.85894571	      1.05562357	     -3.72730735	      4.91457528	     -8.81506018	     12.71883100	      0.22198548	      6.88974956	      0.00000000	      0.00000000	     27.59099785	     -5.37248175	     -9.24144780	      9.22355054	      0.16098133	     -3.37912660	      0.00000000	      0.00000000	     -4.09258304	      1.21807721	      5.51531791	     -3.99018284	     -7.22616775	      7.74475762	     39.50762457	     89.11852949	    -25.31230347	      3.16629382	     -9.78860171	     -6.83800009	      5.02799894	     38.09879720	     89.18507386	    -24.39929727	     -2.62002004
      0.06000000	      1.65773615	     -5.00340036	     89.20556646	      0.35719447	      0.85812360	      1.05074139	     -3.85677714	      4.88902921	     -8.96295599	     12.76627029	      0.22281345	      6.93213016	      0.00000000	      0.00000000	     27.17606557	     -5.29983164	     -8.89519642	      8.66633675	      0.15125611	     -4.29359885	      0.00000000	      0.00000000	     -3.91357801	      1.24171899	      5.19711654	     -3.88094136	     -7.12118377	      7.87358526	     39.28951621	     89.12352239	    -25.25560945	      3.06792671	     -9.89218425	     -6.85483288	      4.67034152	     38.33137997	     89.20774433	    -24.42729724	     -2.62366109
